<?xml version="1.0" encoding="UTF-8" standalone="no"?>
<!-- Created with Inkscape (http://www.inkscape.org/) -->

<svg
   width="100"
   height="100"
   viewBox="0 0 26.458333 26.458333"
   version="1.1"
   id="svg26"
   sodipodi:docname="hlava_cerva_cute_modra.svg"
   inkscape:version="1.2.1 (9c6d41e410, 2022-07-14)"
   xmlns:inkscape="http://www.inkscape.org/namespaces/inkscape"
   xmlns:sodipodi="http://sodipodi.sourceforge.net/DTD/sodipodi-0.dtd"
   xmlns="http://www.w3.org/2000/svg"
   xmlns:svg="http://www.w3.org/2000/svg"
   xmlns:rdf="http://www.w3.org/1999/02/22-rdf-syntax-ns#"
   xmlns:cc="http://creativecommons.org/ns#"
   xmlns:dc="http://purl.org/dc/elements/1.1/">
  <sodipodi:namedview
     id="namedview6231"
     pagecolor="#ffffff"
     bordercolor="#000000"
     borderopacity="0.25"
     inkscape:showpageshadow="2"
     inkscape:pageopacity="0.0"
     inkscape:pagecheckerboard="0"
     inkscape:deskcolor="#d1d1d1"
     showgrid="false"
     inkscape:zoom="12.2"
     inkscape:cx="32.704918"
     inkscape:cy="56.721311"
     inkscape:window-width="2560"
     inkscape:window-height="1494"
     inkscape:window-x="-11"
     inkscape:window-y="-11"
     inkscape:window-maximized="1"
     inkscape:current-layer="svg26" />
  <title
     id="title5664">cute zelená hlava červa</title>
  <defs
     id="defs23">
    <linearGradient
       id="linearGradient848">
      <stop
         style="stop-color:#000000;stop-opacity:1;"
         offset="0"
         id="stop846" />
    </linearGradient>
  </defs>
  <g
     id="layer1">
    <ellipse
       style="fill:#0000ff;fill-opacity:1;stroke:#000000;stroke-width:0.264583;stroke-opacity:1"
       id="path132"
       cx="13.389851"
       cy="15.906531"
       rx="10.608989"
       ry="10.28919" />
    <ellipse
       style="fill:#0000ff;fill-opacity:1;stroke:#000000;stroke-width:0.278631;stroke-opacity:1"
       id="path2585"
       cx="20.620094"
       cy="3.0033314"
       rx="2.7877424"
       ry="1.605876" />
    <ellipse
       style="fill:#0000ff;fill-opacity:1;stroke:#000000;stroke-width:0.264583;stroke-opacity:1"
       id="path2587"
       cx="5.5895329"
       cy="2.9755228"
       rx="3.0033312"
       ry="1.5850914" />
    <ellipse
       style="fill:#f9f9f9;fill-opacity:1;stroke:#000000;stroke-width:0.264583;stroke-opacity:1"
       id="path2641"
       cx="7.4388061"
       cy="10.09453"
       rx="3.1840873"
       ry="3.0867569" />
    <ellipse
       style="fill:#f9f9f9;fill-opacity:1;stroke:#000000;stroke-width:0.264583;stroke-opacity:1"
       id="path2641-3"
       cx="18.298073"
       cy="9.9554863"
       rx="3.1840873"
       ry="3.0867569" />
    <ellipse
       style="fill:#000000;fill-opacity:1;stroke:#000000;stroke-width:0.264583;stroke-opacity:1"
       id="path2665"
       cx="7.8559356"
       cy="10.720223"
       rx="1.209675"
       ry="1.1262492" />
    <ellipse
       style="fill:#000000;fill-opacity:1;stroke:#000000;stroke-width:0.264583;stroke-opacity:1"
       id="path2665-1"
       cx="17.825327"
       cy="10.595085"
       rx="1.209675"
       ry="1.1262492" />
    <circle
       style="fill:#f9f9f9;fill-opacity:1;stroke:#000000;stroke-width:0.264583;stroke-opacity:1"
       id="path2689"
       cx="8.0645008"
       cy="11.095639"
       r="0.47274655" />
    <circle
       style="fill:#f9f9f9;fill-opacity:1;stroke:#000000;stroke-width:0.264583;stroke-opacity:1"
       id="path2689-0"
       cx="17.714092"
       cy="10.984406"
       r="0.47274655" />
    <ellipse
       style="fill:#ff0000;fill-opacity:1;stroke:none;stroke-width:0.234326;stroke-opacity:1"
       id="path2767"
       cx="13.070051"
       cy="18.812532"
       rx="3.3521631"
       ry="2.8655124" />
    <ellipse
       style="fill:#0000ff;fill-opacity:1;stroke:none;stroke-width:0.264583;stroke-opacity:1"
       id="path2765"
       cx="13.153479"
       cy="16.69908"
       rx="3.3648431"
       ry="3.267513" />
    <path
       style="fill:none;fill-opacity:1;stroke:none;stroke-width:0.264583;stroke-opacity:1"
       d="m 7.0633899,1.5850915 c 0.027809,-0.037078 0.047234,-0.082281 0.083426,-0.1112345 0.014475,-0.011581 0.038029,0.00586 0.055617,0 0.071866,-0.023955 0.1486077,-0.1094987 0.2224688,-0.1390431 0.017214,-0.00689 0.040192,0.010283 0.055617,0 0.017246,-0.011498 0.010562,-0.04412 0.027809,-0.055617 0.015425,-0.010284 0.037632,0.0045 0.055617,0 0.074933,0.071063 0.050687,-0.053152 0.055617,-0.055617 0.055617,-0.027809 0.041713,0.013904 0.083426,0 0.023778,-0.00793 0.089821,-0.051335 0.1112346,-0.055617 0.045447,-0.00909 0.095074,0.014656 0.139043,0 0.077303,-0.025768 0.1082969,-0.027809 0.1946603,-0.027809 0.094494,0 0.4828064,-0.022779 0.5283639,0 0.026363,0.013181 0.3198426,0.2294863 0.3337034,0.2502776 0.010284,0.015425 -0.00586,0.038029 0,0.055617 0.040287,0.1208617 0.015592,-0.085249 0.083426,0.027809 0.024318,0.04053 0.00919,0.095599 0.027809,0.1390431 0.010327,0.024098 0.039886,0.034643 0.055617,0.055617 0.031652,0.042202 0.030473,0.1013272 0.055617,0.1390431 0.014544,0.021815 0.041074,0.033802 0.055617,0.055617 0.00514,0.00771 0,0.018539 0,0.027809 0.00927,0.018539 0.013152,0.040961 0.027808,0.055617 0.00655,0.00655 0.021254,-0.00655 0.027809,0 0.032773,0.032773 -0.014655,0.095074 0,0.1390431 0.00293,0.00879 0.021254,-0.00655 0.027809,0 0.01311,0.013109 -0.00829,0.039035 0,0.055617 0.00586,0.011725 0.023664,0.015372 0.027808,0.027809 0.00586,0.017588 -0.01311,0.042508 0,0.055617 0.096674,0.096674 0.029969,-0.076944 0.083426,0.083426 0.02613,0.07839 0.00719,0.2234087 0.027809,0.3058949 0.00467,0.018678 0.06966,0.1533607 0.083426,0.1946603 0.013481,0.040443 -0.018814,0.1014122 0,0.1390431 0.049489,0.098978 0.033719,0.2342891 0.083426,0.3337036 0.014147,0.028294 -0.022048,0.1169964 0,0.139043 0.00655,0.00655 0.023664,-0.00829 0.027809,0 0.022564,0.045129 -0.016148,0.1184064 0,0.1668518 0.024323,0.072971 0.079885,0.1041522 0.1112345,0.1668516 0.026753,0.053506 -0.019084,0.1374039 0,0.1946603 0.00566,0.01697 0.04996,0.066455 0.055617,0.083426 0.00188,0.00561 -0.00925,0.1019823 0,0.1112345 0.014655,0.014655 0.046348,0.00927 0.055617,0.027809 0.012435,0.024873 -0.00674,0.056447 0,0.083426 0.00318,0.012719 0.023664,0.015372 0.027808,0.027809 0.011726,0.035175 -0.016581,0.078071 0,0.1112345 0.00415,0.00829 0.023664,-0.00829 0.027809,0 0.040786,0.081572 -0.040786,0.2243228 0,0.3058949 0.00415,0.00829 0.01854,0 0.027809,0 0.0093,0.00927 0.02366,0.015372 0.02781,0.027808 0.01173,0.035176 -0.01173,0.076059 0,0.1112345 0.0041,0.012435 0.02366,0.015372 0.02781,0.027808 0.01301,0.039028 -0.01831,0.1024213 0,0.1390433 0.03163,0.063267 0.02402,0.1314717 0.05562,0.1946603 0.01415,0.028294 -0.02205,0.1169966 0,0.1390431 0.0066,0.00655 0.02125,-0.00655 0.02781,0 0.05095,0.050946 -0.03396,0.2379681 0,0.3058948 0.01941,0.03882 0.0689,0.2079403 0.08343,0.2224691 0.0066,0.00655 0.01854,0 0.02781,0 0.0093,0.018539 0.01854,0.037078 0.02781,0.055617"
       id="path3092" />
    <path
       style="fill:none;fill-opacity:1;stroke:none;stroke-width:0.264583;stroke-opacity:1"
       d="M 7.508328,1.6407087 C 9.7886349,1.3904311 9.7608262,2.5305846 9.7608262,2.5305846 l 0.5283638,1.6685174 0.389321,1.6129"
       id="path3327" />
    <path
       style="fill:none;fill-opacity:1;stroke:#000000;stroke-width:0.264583;stroke-linecap:round;stroke-linejoin:bevel;stroke-dasharray:none;stroke-opacity:1"
       d="m 7.3414761,1.6129001 c 0,0 0.4591113,-1.14373374 0.9259603,-1.07236629 1.8830326,0.2878602 2.2720316,5.24365939 2.2720316,5.24365939 m 8.35649,-4.0506362 c 0,0 -0.383088,-1.36110332 -0.853791,-1.32264381 C 16.711024,0.51967602 15.88673,1.7471087 15.225221,5.7379984"
       id="path6052" />
  </g>
  <metadata
     id="metadata5662">
    <rdf:RDF>
      <cc:Work
         rdf:about="">
        <dc:title>cute zelená hlava červa</dc:title>
      </cc:Work>
    </rdf:RDF>
  </metadata>
</svg>
