<?xml version="1.0" encoding="UTF-8" standalone="no"?>
<!-- Created with Inkscape (http://www.inkscape.org/) -->

<svg
   width="31.412247mm"
   height="26.408257mm"
   viewBox="0 0 31.412247 26.408257"
   version="1.1"
   id="svg6733"
   inkscape:export-filename="hlava_cerva_1.svg"
   inkscape:export-xdpi="96"
   inkscape:export-ydpi="96"
   xmlns:inkscape="http://www.inkscape.org/namespaces/inkscape"
   xmlns:sodipodi="http://sodipodi.sourceforge.net/DTD/sodipodi-0.dtd"
   xmlns:xlink="http://www.w3.org/1999/xlink"
   xmlns="http://www.w3.org/2000/svg"
   xmlns:svg="http://www.w3.org/2000/svg">
  <sodipodi:namedview
     id="namedview6735"
     pagecolor="#ffffff"
     bordercolor="#000000"
     borderopacity="0.25"
     inkscape:showpageshadow="2"
     inkscape:pageopacity="0.0"
     inkscape:pagecheckerboard="0"
     inkscape:deskcolor="#d1d1d1"
     inkscape:document-units="mm"
     showgrid="false" />
  <defs
     id="defs6730">
    <linearGradient
       inkscape:collect="always"
       xlink:href="#linearGradient1809"
       id="linearGradient3509"
       gradientUnits="userSpaceOnUse"
       gradientTransform="translate(6.4103566,14.841359)"
       x1="43.456699"
       y1="44.085934"
       x2="75.529984"
       y2="44.085934" />
    <linearGradient
       id="linearGradient1809"
       inkscape:swatch="solid">
      <stop
         style="stop-color:#2aafff;stop-opacity:1;"
         offset="0"
         id="stop1807" />
    </linearGradient>
    <linearGradient
       inkscape:collect="always"
       xlink:href="#linearGradient2589"
       id="linearGradient3511"
       gradientUnits="userSpaceOnUse"
       gradientTransform="translate(6.3316966,14.802029)"
       x1="43.535355"
       y1="44.125259"
       x2="75.608643"
       y2="44.125259" />
    <linearGradient
       id="linearGradient2589"
       inkscape:swatch="solid">
      <stop
         style="stop-color:#000000;stop-opacity:1;"
         offset="0"
         id="stop2587" />
    </linearGradient>
    <linearGradient
       inkscape:collect="always"
       xlink:href="#linearGradient2589"
       id="linearGradient3513"
       gradientUnits="userSpaceOnUse"
       x1="44.245125"
       y1="39.081062"
       x2="51.322876"
       y2="39.081062" />
    <linearGradient
       inkscape:collect="always"
       xlink:href="#linearGradient2589"
       id="linearGradient3515"
       gradientUnits="userSpaceOnUse"
       x1="36.289349"
       y1="29.610609"
       x2="41.765625"
       y2="29.610609" />
  </defs>
  <g
     inkscape:label="Vrstva 1"
     inkscape:groupmode="layer"
     id="layer1"
     transform="translate(-49.734552,-42.168753)">
    <ellipse
       style="display:inline;fill:url(#linearGradient3509);fill-opacity:1;stroke:url(#linearGradient3511);stroke-width:0.265;stroke-dasharray:none;paint-order:fill markers stroke;image-rendering:auto"
       id="path215"
       cx="65.440674"
       cy="58.927292"
       rx="15.573623"
       ry="9.5172138" />
    <path
       sodipodi:type="star"
       style="display:inline;fill:#2aff2a;stroke:url(#linearGradient3513);stroke-width:0.264583"
       id="path1090"
       inkscape:flatsided="false"
       sodipodi:sides="5"
       sodipodi:cx="47.940018"
       sodipodi:cy="39.288006"
       sodipodi:r1="3.7550907"
       sodipodi:r2="1.8775454"
       sodipodi:arg1="0.80761673"
       sodipodi:arg2="1.4359353"
       inkscape:rounded="0"
       inkscape:randomized="0"
       d="m 50.535621,42.001592 -2.343162,-0.853089 -2.031129,1.446613 0.08726,-2.492099 -2.003464,-1.484691 2.397092,-0.687113 0.79292,-2.364202 1.394226,2.06744 2.493515,0.02353 -1.535413,1.964862 z"
       inkscape:transform-center-x="0.33867579"
       inkscape:transform-center-y="-0.039998091"
       transform="matrix(0.17818338,-0.9856967,1.0421635,0.168529,7.8316366,96.532239)" />
    <path
       sodipodi:type="star"
       style="display:inline;fill:#fff1c5;fill-opacity:1;stroke-width:0.264583"
       id="path1092"
       inkscape:flatsided="false"
       sodipodi:sides="5"
       sodipodi:cx="47.664726"
       sodipodi:cy="37.911545"
       sodipodi:r1="8.434864"
       sodipodi:r2="4.2174325"
       sodipodi:arg1="0.61645547"
       sodipodi:arg2="1.244774"
       inkscape:rounded="0"
       inkscape:randomized="0"
       d="m 54.547009,42.788134 -5.531534,-0.881315 -3.861918,4.057114 -0.871158,-5.533142 -5.051943,-2.419185 4.993129,-2.538356 0.739645,-5.552253 3.957081,3.964353 5.509069,-1.012296 -2.547518,4.98846 z"
       inkscape:transform-center-x="0.78179694"
       inkscape:transform-center-y="0.081012727"
       transform="matrix(1.0778103,0.13876676,-0.04777701,0.13427584,16.991587,50.894829)" />
    <path
       sodipodi:type="star"
       style="display:inline;fill:#80efff;fill-opacity:1;stroke:url(#linearGradient3515);stroke-width:0.264583"
       id="path1094"
       inkscape:flatsided="false"
       sodipodi:sides="5"
       sodipodi:cx="38.776749"
       sodipodi:cy="29.57415"
       sodipodi:r1="2.9912047"
       sodipodi:r2="1.4956026"
       sodipodi:arg1="0.039453201"
       sodipodi:arg2="0.66777173"
       inkscape:rounded="0"
       inkscape:randomized="0"
       d="m 41.765626,29.692132 -1.814525,0.808152 -0.362946,1.952916 -1.329317,-1.475983 -1.96949,0.258302 0.992962,-1.72036 -0.854266,-1.793276 1.943001,0.412742 1.441525,-1.366607 0.207879,1.975448 z"
       inkscape:transform-center-x="0.022542129"
       inkscape:transform-center-y="0.26411099"
       transform="rotate(17.136871,-27.664373,154.10134)" />
    <path
       sodipodi:type="spiral"
       style="display:inline;fill:none;fill-rule:evenodd;stroke:#000000;stroke-width:0.264583"
       id="path3028"
       sodipodi:cx="30.360699"
       sodipodi:cy="34.922668"
       sodipodi:expansion="1"
       sodipodi:revolution="3"
       sodipodi:radius="8.0471249"
       sodipodi:argument="-17.935946"
       sodipodi:t0="0"
       d="m 30.360699,34.922668 c 0.246476,0.319434 -0.308987,0.489843 -0.530919,0.40966 -0.601422,-0.217289 -0.598715,-1.023167 -0.288401,-1.471497 0.555078,-0.801956 1.721821,-0.753873 2.412076,-0.167142 1.012977,0.861051 0.915013,2.430452 0.04588,3.352655 -1.158413,1.229151 -3.14269,1.078785 -4.293233,-0.07538 -1.447841,-1.452394 -1.243936,-3.856664 0.196634,-5.233812 1.744724,-1.667911 4.571618,-1.409888 6.174391,0.317893 1.888812,2.03613 1.576343,5.287184 -0.439152,7.11497 -2.326969,2.11025 -6.003158,1.743133 -8.055548,-0.560411 -2.332056,-2.617434 -1.910159,-6.71942 0.68167,-8.996127 2.90764,-2.554122 7.435889,-2.077356 9.936705,0.802929 2.77638,3.197661 2.244679,8.152517 -0.924188,10.877284"
       transform="matrix(0.46689064,0.64051312,-0.25770327,0.3213411,54.647467,16.261819)" />
    <path
       sodipodi:type="spiral"
       style="display:inline;fill:none;fill-rule:evenodd;stroke:#000000;stroke-width:0.264583"
       id="path3028-2"
       sodipodi:cx="30.360699"
       sodipodi:cy="34.922668"
       sodipodi:expansion="1"
       sodipodi:revolution="3"
       sodipodi:radius="8.0471249"
       sodipodi:argument="-17.935946"
       sodipodi:t0="0"
       d="m 30.360699,34.922668 c 0.246476,0.319434 -0.308987,0.489843 -0.530919,0.40966 -0.601422,-0.217289 -0.598715,-1.023167 -0.288401,-1.471497 0.555078,-0.801956 1.721821,-0.753873 2.412076,-0.167142 1.012977,0.861051 0.915013,2.430452 0.04588,3.352655 -1.158413,1.229151 -3.14269,1.078785 -4.293233,-0.07538 -1.447841,-1.452394 -1.243936,-3.856664 0.196634,-5.233812 1.744724,-1.667911 4.571618,-1.409888 6.174391,0.317893 1.888812,2.03613 1.576343,5.287184 -0.439152,7.11497 -2.326969,2.11025 -6.003158,1.743133 -8.055548,-0.560411 -2.332056,-2.617434 -1.910159,-6.71942 0.68167,-8.996127 2.90764,-2.554122 7.435889,-2.077356 9.936705,0.802929 2.77638,3.197661 2.244679,8.152517 -0.924188,10.877284"
       transform="matrix(-0.42162806,-0.05482518,-0.75109702,0.75020276,111.95973,23.512649)" />
    <ellipse
       style="display:inline;fill:#22241c;fill-opacity:1;stroke-width:0.622866;stroke-dasharray:none;paint-order:fill markers stroke"
       id="path3144"
       cx="57.634201"
       cy="55.879425"
       rx="1.2388109"
       ry="1.120829" />
    <ellipse
       style="display:inline;fill:#22241c;fill-opacity:1;stroke-width:0.376841;stroke-dasharray:none;paint-order:fill markers stroke"
       id="path3198"
       cx="72.67691"
       cy="54.856918"
       rx="1.0225105"
       ry="0.96351957" />
    <path
       sodipodi:type="star"
       style="display:inline;fill:#22241c;fill-opacity:1;stroke-width:0.264999;stroke-dasharray:none;paint-order:fill markers stroke"
       id="path3448"
       inkscape:flatsided="false"
       sodipodi:sides="5"
       sodipodi:cx="28.551641"
       sodipodi:cy="42.276878"
       sodipodi:r1="0.86251569"
       sodipodi:r2="0.4312579"
       sodipodi:arg1="1.9936503"
       sodipodi:arg2="2.6219688"
       inkscape:rounded="0"
       inkscape:randomized="0"
       d="m 28.197695,43.063425 -0.02039,-0.572404 -0.483091,-0.307709 0.538088,-0.196273 0.143365,-0.554534 0.352945,0.4511 0.571696,-0.03501 -0.319956,0.475069 0.209962,0.532895 -0.550688,-0.157492 z"
       inkscape:transform-center-x="0.14891851"
       inkscape:transform-center-y="-0.077021546"
       transform="matrix(2.7385282,0,0,2.6638371,-12.162663,-54.646161)" />
  </g>
</svg>
