<?xml version="1.0" encoding="UTF-8" standalone="no"?>
<!-- Created with Inkscape (http://www.inkscape.org/) -->

<svg
   width="150"
   height="150"
   viewBox="0 0 150 150"
   version="1.1"
   id="svg5"
   xml:space="preserve"
   inkscape:version="1.2.1 (9c6d41e410, 2022-07-14)"
   sodipodi:docname="tunel.svg"
   inkscape:export-filename="Web1\src\tunel.svg"
   inkscape:export-xdpi="96"
   inkscape:export-ydpi="96"
   xmlns:inkscape="http://www.inkscape.org/namespaces/inkscape"
   xmlns:sodipodi="http://sodipodi.sourceforge.net/DTD/sodipodi-0.dtd"
   xmlns="http://www.w3.org/2000/svg"
   xmlns:svg="http://www.w3.org/2000/svg"
   xmlns:rdf="http://www.w3.org/1999/02/22-rdf-syntax-ns#"
   xmlns:cc="http://creativecommons.org/ns#"
   xmlns:dc="http://purl.org/dc/elements/1.1/"><title
     id="title5943">tunel k Dokonči čáru</title><sodipodi:namedview
     id="namedview7"
     pagecolor="#ffffff"
     bordercolor="#000000"
     borderopacity="0.25"
     inkscape:showpageshadow="2"
     inkscape:pageopacity="0.0"
     inkscape:pagecheckerboard="0"
     inkscape:deskcolor="#d1d1d1"
     inkscape:document-units="mm"
     showgrid="false"
     inkscape:zoom="2.5464038"
     inkscape:cx="246.62231"
     inkscape:cy="370.12982"
     inkscape:window-width="2243"
     inkscape:window-height="1445"
     inkscape:window-x="4440"
     inkscape:window-y="30"
     inkscape:window-maximized="0"
     inkscape:current-layer="layer2" /><defs
     id="defs2"><linearGradient
       id="linearGradient3160"
       inkscape:swatch="solid"><stop
         style="stop-color:#ffff00;stop-opacity:1;"
         offset="0"
         id="stop3158" /></linearGradient><linearGradient
       id="linearGradient1042"
       inkscape:swatch="gradient"><stop
         style="stop-color:#9c9c9c;stop-opacity:1;"
         offset="0.18548387"
         id="stop1038" /><stop
         style="stop-color:#000000;stop-opacity:0;"
         offset="1"
         id="stop1040" /></linearGradient></defs><g
     inkscape:groupmode="layer"
     id="layer3"
     inkscape:label="Vrstva 3"
     style="display:inline"><rect
       style="display:inline;fill:#ffff00;fill-opacity:1;stroke:none;stroke-width:6.02884;stroke-linecap:round;stroke-linejoin:round;stroke-dasharray:72.3464, 6.02884;stroke-dashoffset:163.383;stroke-opacity:1;paint-order:normal"
       id="rect5938-3"
       width="56.654133"
       height="52.216259"
       x="2.8422356"
       y="2.3833489"
       transform="matrix(0.99987437,-0.01585043,0,1,0,0)" /><path
       style="display:inline;fill:#2b2933;stroke:none;stroke-width:0.264583"
       d="m 3.638967,1.2967983 c -3.46107002,1.269391 -2.88489502,5.12092 -2.87010502,8.084216 0.0048,0.9678867 -0.448711,3.4418667 1.07548802,3.4342587 1.237316,-0.0062 0.781888,-2.378646 0.777894,-3.1789207 -0.01292,-2.589102 -0.633183,-6.020764 2.611906,-6.804095 1.233975,-0.297861 2.70251,-0.101679 3.96826,-0.107996 l 7.408242,-0.03698 24.341364,-0.12149 10.847782,-0.05414 c 1.522393,-0.0076 3.565286,-0.375691 5.02746,0.0631 3.07223,0.922007 2.404042,4.559599 2.416438,7.043582 l 0.108282,21.6955637 0.03301,6.6145 c 0.003,0.601656 -0.08134,2.25733 1.066906,1.714489 0.75889,-0.358867 0.52125,-1.588534 0.51794,-2.251571 l -0.0317,-6.349921 -0.10696,-21.4309847 c -0.013,-2.603202 0.71917,-6.089158 -1.538992,-7.929917 C 58.03026,0.65171233 56.485255,0.90074333 54.966827,0.90832333 l -9.260297,0.04622 -29.368385,0.14657897 -8.731142,0.04358 c -1.207755,0.006 -2.82862,-0.26580197 -3.96804,0.152099 m 19.065609,3.079882 c -1.277055,0.476755 -1.068519,3.660518 0.545227,3.216425 1.376632,-0.378854 0.929399,-3.766929 -0.545227,-3.216425 m 15.874583,-0.123342 c -1.334382,0.303526 -1.064889,3.725482 0.545447,3.26053 0.988922,-0.28553 0.829636,-3.573282 -0.545447,-3.26053 m -10.266294,1.68287 c -0.929489,0.689918 0.408388,1.881527 1.02492,2.155683 1.278675,0.568672 2.857125,0.394818 3.921875,-0.548746 0.616671,-0.546328 0.828606,-1.659204 -0.229199,-1.762776 -0.82909,-0.08116 -1.462477,0.667472 -2.290034,0.628789 -0.766157,-0.03579 -1.618015,-1.074004 -2.427562,-0.47295 M 8.663533,53.792166 C 6.875502,53.801066 4.26396,54.089029 3.23172,52.231756 2.759313,51.38188 2.824986,50.257588 2.820324,49.323355 l -0.02641,-5.2916 -0.09772,-19.578923 -0.03697,-7.40824 C 2.655924,16.389518 2.943282,14.94905 2.118399,14.710118 0.89908298,14.356922 0.80049498,15.718024 0.80452098,16.524675 l 0.03566,7.143661 0.113566,22.753882 c 0.01312,2.628339 -0.705592,6.659464 1.89365702,8.325028 1.37753,0.882666 2.939425,0.646797 4.501162,0.639002 l 8.731142,-0.04358 30.426705,-0.151862 8.46656,-0.04226 c 1.310202,-0.0065 2.7867,0.226341 3.966721,-0.416672 3.232403,-1.761348 2.082463,-6.858688 2.067123,-9.932317 -0.004,-0.828665 0.47918,-3.76111 -1.07527,-3.390074 -0.600426,0.143227 -0.518526,0.807725 -0.522777,1.281356 -0.01254,1.410575 0.01409,2.82254 0.02113,4.23328 0.01193,2.390481 0.573409,5.629393 -2.348645,6.538284 -1.021578,0.317559 -2.375491,0.09996 -3.439102,0.105275 L 53.561593,37.428292 C 53.533223,31.744318 53.546503,26.346923 50.570661,21.303435 44.000433,10.168423 29.627819,6.9871193 18.781658,13.568604 14.928907,15.906486 11.964527,19.86566 10.145903,23.886477 8.333272,27.893958 8.556158,32.27784 8.577703,36.594462 l 0.08583,17.197704 m 21.22234,-41.91061 0.03169,6.34992 -0.120844,2.293697 -2.509768,0.76218 -2.551675,1.203375 -1.671043,0.934393 -3.278332,-3.026383 -2.529135,-3.11831 2.59091,-2.173732 6.864995,-2.856529 3.1732,-0.368611 m 1.85206,-0.0092 c 3.698522,0.662243 7.064448,1.057113 10.334469,3.123459 0.661435,0.417895 2.56521,1.492907 2.56958,2.368455 0.0044,0.880258 -1.701001,2.072662 -2.279911,2.657246 -0.864017,0.872606 -2.237018,2.927862 -3.423252,3.280312 -0.565118,0.167869 -1.151965,-0.414045 -1.591006,-0.697607 -0.892152,-0.576129 -1.895647,-1.089922 -2.917424,-1.396584 -0.679682,-0.203964 -2.041148,-0.07821 -2.517032,-0.692984 -0.37176,-0.480434 -0.140857,-1.715724 -0.143735,-2.292377 l -0.03169,-6.34992 m -12.602122,19.642309 -8.731141,0.04358 c -0.01617,-3.240576 1.043794,-6.122717 2.468612,-9.008266 0.529535,-1.072446 1.286095,-2.678612 2.320387,-3.36302 0.754966,-0.499551 1.239702,0.181536 1.767397,0.696751 1.160098,1.132621 2.304561,2.28167 3.456709,3.422374 0.430864,0.426585 1.176631,0.936002 1.242639,1.581317 0.07224,0.706615 -0.773333,1.527033 -1.091862,2.122142 -0.797829,1.490695 -1.139679,2.868251 -1.432741,4.505125 m 32.543346,-0.162426 -8.731142,0.04358 C 42.674904,29.9536 42.223308,28.47999 41.559799,27.169365 c -0.369298,-0.729661 -1.286287,-1.510561 -1.290601,-2.374839 -0.003,-0.605808 0.75669,-1.118823 1.138942,-1.505017 l 3.510304,-3.545333 c 0.461757,-0.466415 0.953335,-1.213231 1.671844,-0.757999 1.050821,0.665721 1.89416,2.329571 2.442351,3.38333 1.442878,2.773896 2.547034,5.802902 2.646515,8.982737 m -32.487884,11.274787 -8.731142,0.04358 -0.04622,-9.260302 6.085341,-0.03037 2.337776,0.120626 0.319909,2.247388 0.03433,6.879082 m 32.497127,-9.422728 0.04622,9.260302 -8.731142,0.04358 -0.04622,-9.260302 8.731142,-0.04358 m -32.487883,11.274788 0.04622,9.260302 -8.731141,0.04358 -0.04622,-9.260302 8.731141,-0.04358 m 32.543345,-0.162426 0.04622,9.260305 -8.731142,0.04357 -0.04622,-9.260302 z"
       id="path5417-9" /></g><metadata
     id="metadata5941"><rdf:RDF><cc:Work
         rdf:about=""><dc:title>tunel k Dokonči čáru</dc:title></cc:Work></rdf:RDF></metadata></svg>
