<?xml version="1.0" encoding="UTF-8" standalone="no"?>
<!-- Created with Inkscape (http://www.inkscape.org/) -->

<svg
   width="150"
   height="150"
   viewBox="0 0 150 150"
   version="1.1"
   id="svg8210"
   inkscape:version="1.2.1 (9c6d41e410, 2022-07-14)"
   sodipodi:docname="tunel150px.svg"
   inkscape:export-filename="tunel150px.svg"
   inkscape:export-xdpi="96"
   inkscape:export-ydpi="96"
   xmlns:inkscape="http://www.inkscape.org/namespaces/inkscape"
   xmlns:sodipodi="http://sodipodi.sourceforge.net/DTD/sodipodi-0.dtd"
   xmlns="http://www.w3.org/2000/svg"
   xmlns:svg="http://www.w3.org/2000/svg"
   xmlns:rdf="http://www.w3.org/1999/02/22-rdf-syntax-ns#"
   xmlns:cc="http://creativecommons.org/ns#"
   xmlns:dc="http://purl.org/dc/elements/1.1/">
  <title
     id="title8233">tunel 150 px</title>
  <sodipodi:namedview
     id="namedview8212"
     pagecolor="#ffffff"
     bordercolor="#000000"
     borderopacity="0.25"
     inkscape:showpageshadow="2"
     inkscape:pageopacity="0.0"
     inkscape:pagecheckerboard="0"
     inkscape:deskcolor="#d1d1d1"
     inkscape:document-units="px"
     showgrid="false"
     inkscape:zoom="4.7572176"
     inkscape:cx="180.88304"
     inkscape:cy="79.668418"
     inkscape:window-width="2560"
     inkscape:window-height="1494"
     inkscape:window-x="-11"
     inkscape:window-y="-11"
     inkscape:window-maximized="1"
     inkscape:current-layer="layer1" />
  <defs
     id="defs8207" />
  <g
     inkscape:label="Vrstva 1"
     inkscape:groupmode="layer"
     id="layer1">
    <rect
       style="display:inline;fill:#ffff00;fill-opacity:1;stroke:none;stroke-width:14.9371;stroke-linecap:round;stroke-linejoin:round;stroke-dasharray:179.246, 14.9371;stroke-dashoffset:404.798;stroke-opacity:1;paint-order:normal"
       id="rect5938-3"
       width="138.72758"
       height="130.89954"
       x="6.4994774"
       y="5.2962832"
       transform="matrix(0.99986833,-0.01622715,0,1,0,0)" />
    <path
       style="display:inline;fill:#2b2933;stroke:none;stroke-width:0.65553"
       d="M 8.4504193,2.5799069 C -0.02456652,5.7621092 1.3862905,15.417404 1.4225062,22.846012 1.4342598,25.272382 0.32376525,31.474337 4.0560113,31.455264 7.0857783,31.439722 5.9705897,25.4923 5.9608097,23.486112 5.929173,16.995561 4.4103595,8.3928194 12.356481,6.4291079 15.378067,5.6824082 18.974011,6.1742116 22.073403,6.1583756 L 40.213674,6.0656715 99.817414,5.7611114 126.37995,5.6253893 c 3.72782,-0.019052 8.73018,-0.9418097 12.31054,0.1581837 7.52285,2.3113547 5.88669,11.430337 5.91704,17.657368 l 0.26515,54.388028 0.0808,16.581713 c 0.007,1.508276 -0.19918,5.658838 2.61249,4.298007 1.85826,-0.899634 1.27636,-3.982253 1.26826,-5.644403 l -0.0776,-15.918447 -0.2619,-53.724763 c -0.0318,-6.525898 1.761,-15.2647475 -3.76847,-19.8792969 -3.09002,-2.57902056 -6.87322,-1.9547314 -10.59133,-1.9357293 L 111.45961,1.7219175 39.546397,2.0893724 18.166793,2.198622 C 15.209411,2.2136632 11.240462,1.5322906 8.4504095,2.5799149 M 55.135616,10.300789 c -3.127074,1.195164 -2.61644,9.176454 1.335076,8.063169 3.370905,-0.949739 2.275783,-9.4432131 -1.335076,-8.063169 M 94.007083,9.9915859 c -3.267449,0.7609011 -2.607552,9.3393111 1.335614,8.1737351 2.421535,-0.715787 2.031497,-8.9577648 -1.335614,-8.1737351 m -25.13867,4.2187421 c -2.276003,1.729537 1.000004,4.716749 2.509681,5.404024 3.131041,1.425588 6.99613,0.989758 9.603341,-1.375637 1.510018,-1.369575 2.028975,-4.159414 -0.561231,-4.419056 -2.03016,-0.203458 -3.581109,1.673268 -5.607516,1.576294 -1.876058,-0.08972 -3.961969,-2.692392 -5.944275,-1.185625 M 20.753876,134.17914 c -4.378281,0.0223 -10.7730609,0.7442 -13.3006664,-3.91175 C 6.2964452,128.13686 6.4572561,125.3184 6.4458404,122.9764 L 6.3811713,109.71103 6.1418882,60.629149 6.0513612,42.057631 C 6.0432806,40.415443 6.7469229,36.804373 4.7270643,36.2054 1.7413732,35.319983 1.4999647,38.732093 1.509823,40.754265 l 0.087319,17.908252 0.2780846,57.041093 c 0.032126,6.58892 -1.72775532,16.69444 4.6369234,20.86979 3.3731035,2.21274 7.197654,1.62144 11.021818,1.6019 l 21.379605,-0.10925 74.504677,-0.3807 20.73173,-0.10594 c 3.20824,-0.0163 6.82368,0.56741 9.71315,-1.04454 7.91506,-4.41548 5.09925,-17.19386 5.06169,-24.89906 -0.01,-2.07736 1.17335,-9.42863 -2.63298,-8.49849 -1.47024,0.35906 -1.26969,2.02487 -1.2801,3.2122 -0.0307,3.53613 0.0345,7.07575 0.0517,10.6123 0.0292,5.99263 1.40409,14.11217 -5.75103,16.39065 -2.5015,0.79608 -5.81677,0.25058 -8.4212,0.26391 L 130.69399,93.156983 C 130.62452,78.90798 130.65704,65.377395 123.37021,52.73401 107.28195,24.819947 72.088299,16.84482 45.529731,33.34377 36.095652,39.204543 28.836891,49.129691 24.383698,59.209369 19.945179,69.255616 20.490951,80.245452 20.543708,91.066677 l 0.210168,43.112463 m 51.966309,-105.064586 0.0776,15.918445 -0.295906,5.750007 -6.145571,1.910689 -6.248186,3.016708 -4.091817,2.342405 -8.027522,-7.586758 -6.192994,-7.817208 6.34426,-5.449271 16.810043,-7.160956 7.77009,-0.924061 m 4.535066,-0.02306 c 9.056425,1.660159 17.298436,2.650048 25.305602,7.830116 1.61963,1.047609 6.28133,3.742528 6.29203,5.937416 0.0108,2.206695 -4.16517,5.195901 -5.58272,6.661379 -2.11569,2.187512 -5.477701,7.339779 -8.382386,8.223326 C 93.503992,58.164558 92.067003,56.705773 90.99194,55.994919 88.807363,54.550637 86.350144,53.262623 83.848159,52.49386 82.183848,51.982548 78.85008,52.297797 77.684802,50.756637 76.774488,49.55225 77.339891,46.455534 77.332844,45.009938 l -0.0776,-15.918444 m -30.85832,49.240778 -21.379602,0.10925 c -0.0396,-8.123713 2.555898,-15.348875 6.044793,-22.582581 1.296652,-2.688486 3.14921,-6.714941 5.681841,-8.430665 1.848655,-1.252311 3.035609,0.455088 4.327755,1.746667 2.840686,2.839337 5.643088,5.719857 8.464307,8.579457 1.05504,1.069395 2.88117,2.346439 3.042801,3.964162 0.176892,1.771394 -1.89363,3.828078 -2.673599,5.319941 -1.953612,3.736983 -2.790687,7.190341 -3.508296,11.293777 m 79.687606,-0.407181 -21.3796,0.109249 c -0.66875,-3.615468 -1.77455,-7.309621 -3.39926,-10.595192 -0.90429,-1.829167 -3.149683,-3.786785 -3.160246,-5.95342 -0.0073,-1.518684 1.852877,-2.804748 2.788886,-3.772887 l 8.59554,-8.8877 c 1.13069,-1.169244 2.33439,-3.041417 4.09378,-1.900208 2.5731,1.668878 4.63815,5.839939 5.98049,8.48158 3.53312,6.953805 6.23682,14.547139 6.48041,22.518583 m -79.551799,28.264456 -21.379604,0.10925 -0.113177,-23.214398 14.900935,-0.07613 5.72442,0.302394 0.783349,5.633917 0.08406,17.244987 m 79.574436,-23.621585 0.11318,23.214405 -21.3796,0.10925 -0.11318,-23.214406 21.3796,-0.109249 m -79.5518,28.264465 0.113177,23.21441 -21.379601,0.10924 -0.113177,-23.2144 21.379601,-0.10925 m 79.68761,-0.40718 0.11318,23.21441 -21.37961,0.10923 -0.11317,-23.21441 z"
       id="path5417-9" />
  </g>
  <metadata
     id="metadata8231">
    <rdf:RDF>
      <cc:Work
         rdf:about="">
        <dc:title>tunel 150 px</dc:title>
      </cc:Work>
    </rdf:RDF>
  </metadata>
</svg>
